<?xml version="1.0" standalone="no"?>
<!DOCTYPE svg PUBLIC "-//W3C//DTD SVG 20010904//EN"
 "http://www.w3.org/TR/2001/REC-SVG-20010904/DTD/svg10.dtd">
<svg version="1.0" xmlns="http://www.w3.org/2000/svg"
 width="893.000000pt" height="1280.000000pt" viewBox="0 0 893.000000 1280.000000"
 preserveAspectRatio="xMidYMid meet">
<metadata>
Created by potrace 1.15, written by Peter Selinger 2001-2017
</metadata>
<g transform="translate(0.000000,1280.000000) scale(0.100000,-0.100000)"
fill="#000000" stroke="none">
<path d="M3537 12089 c-70 -46 -143 -132 -182 -214 -37 -76 -41 -97 -65 -355
-13 -144 -27 -173 -165 -349 -123 -157 -238 -323 -265 -383 -48 -106 -17 -158
124 -213 143 -55 149 -67 131 -230 -7 -64 -5 -72 15 -98 18 -23 29 -28 52 -25
23 4 28 2 23 -11 -4 -9 -9 -28 -12 -43 -5 -24 -7 -25 -34 -16 -23 8 -35 7 -54
-6 -32 -21 -33 -63 -5 -164 22 -79 25 -117 10 -107 -5 3 -10 21 -10 38 0 18
-7 54 -15 81 -19 62 -19 126 -1 151 10 14 26 20 55 20 23 0 41 3 41 6 0 4 3
14 6 23 4 12 0 16 -15 16 -12 0 -33 12 -48 28 -24 25 -25 32 -20 102 4 41 9
86 12 100 4 17 0 33 -13 50 l-20 25 -691 -3 -691 -2 0 -325 0 -325 710 0 c670
0 710 -1 709 -17 0 -10 -11 -56 -22 -102 l-22 -83 -218 -101 c-120 -56 -214
-103 -209 -105 5 -1 96 37 201 87 229 108 231 108 224 82 -3 -10 0 -44 7 -74
14 -69 61 -132 128 -176 104 -66 304 -121 446 -121 131 0 156 -32 165 -213 4
-67 10 -128 14 -134 13 -20 29 -16 18 5 -5 9 -12 70 -15 135 -6 126 -25 185
-67 208 -11 6 -73 14 -137 19 -337 24 -552 158 -540 337 l3 47 199 92 c110 51
203 91 208 88 4 -3 8 -22 8 -43 0 -50 14 -61 82 -61 52 0 64 -4 118 -42 68
-49 78 -69 56 -103 -50 -77 6 -118 179 -131 136 -11 210 28 222 114 5 36 2 45
-25 72 -35 35 -64 37 -196 18 -79 -11 -82 -10 -131 15 -27 14 -63 37 -80 51
l-30 26 33 27 c34 29 40 47 20 57 -23 11 34 0 279 -55 l243 -54 0 -27 c0 -18
17 -46 51 -85 134 -152 189 -247 170 -289 -6 -13 -16 -24 -23 -24 -27 0 -95
44 -148 96 -31 30 -63 54 -71 54 -19 0 -66 -44 -84 -80 -17 -33 -41 -148 -56
-270 -21 -172 5 -392 58 -482 11 -20 33 -38 56 -47 35 -13 40 -13 65 6 48 35
71 113 72 238 0 111 20 291 39 354 6 18 17 44 26 57 17 27 53 32 61 9 4 -8 9
-13 13 -11 3 2 3 -64 -1 -147 -11 -260 -11 -348 0 -462 14 -136 49 -591 57
-740 13 -258 55 -612 105 -895 44 -253 85 -676 67 -687 -6 -3 -89 -6 -186 -6
-204 -1 -271 9 -571 83 -420 103 -538 117 -724 85 -235 -41 -415 -152 -532
-328 -27 -39 -50 -74 -51 -76 -1 -1 -141 128 -311 289 -317 299 -322 305 -322
376 0 13 -5 24 -11 24 -8 0 -10 -14 -6 -41 l5 -41 -31 28 c-18 16 -72 67 -120
113 -70 67 -90 82 -100 72 -9 -10 17 -40 125 -144 124 -119 140 -138 163 -197
14 -36 44 -90 67 -120 l42 -55 -19 -210 c-10 -115 -20 -326 -23 -467 -2 -142
-6 -258 -8 -258 -2 0 -81 34 -175 75 -95 41 -174 75 -176 75 -1 0 -3 -4 -3 -8
0 -5 80 -44 179 -87 l178 -78 7 -121 c20 -361 44 -462 202 -853 51 -128 105
-277 119 -331 33 -127 55 -291 55 -412 l0 -95 -421 -189 c-231 -104 -422 -192
-424 -196 -2 -3 -1 -11 3 -17 6 -9 449 184 811 352 l34 16 -6 -128 c-13 -256
-93 -848 -127 -949 -12 -32 -36 -75 -54 -94 -69 -72 -75 -123 -20 -193 l35
-45 -15 -134 c-32 -273 -46 -548 -28 -548 5 0 12 75 15 168 7 170 31 430 41
440 4 3 6 -33 6 -79 0 -105 25 -163 97 -230 80 -75 156 -107 268 -114 78 -5
229 -52 285 -89 19 -13 48 -42 64 -65 31 -44 68 -142 57 -152 -3 -3 -231 -38
-506 -78 -275 -40 -502 -74 -504 -77 -2 -2 -2 -6 0 -9 4 -3 887 120 990 139
24 4 29 0 43 -38 21 -55 54 -85 100 -93 35 -5 36 -5 36 24 0 23 -14 47 -56 93
-61 69 -74 94 -74 146 0 28 10 45 49 87 28 29 59 73 70 97 10 25 40 69 65 99
25 30 50 67 57 83 10 26 15 27 69 27 l57 -1 -28 -82 c-45 -127 -36 -221 27
-284 l34 -34 100 3 c88 2 102 0 122 -18 39 -34 110 -78 178 -109 63 -28 69
-29 228 -29 89 0 161 -2 159 -5 -1 -3 -14 -27 -28 -55 -43 -80 -59 -150 -59
-249 0 -109 9 -166 24 -166 7 0 24 -25 39 -55 15 -30 31 -55 37 -55 18 0 11
-85 -15 -170 -14 -46 -25 -100 -25 -120 0 -23 24 -96 60 -184 33 -80 64 -163
68 -184 6 -28 13 -38 31 -40 48 -7 68 6 81 53 7 24 32 76 55 113 68 108 77
146 65 255 -13 108 -34 186 -60 219 l-19 24 39 37 c83 78 89 145 26 297 -19
46 -34 86 -32 87 2 2 36 -17 76 -41 156 -97 279 -125 456 -107 563 60 749 167
922 531 34 72 69 127 111 174 49 55 63 79 73 124 8 38 24 69 50 99 48 56 54
79 39 163 -14 77 -7 102 51 178 29 38 33 51 32 100 -1 32 -5 79 -9 105 -7 45
-5 51 28 100 20 29 41 65 46 80 19 50 13 125 -15 189 -23 49 -25 63 -16 83 11
24 14 25 122 25 60 0 113 1 118 2 13 3 162 -839 197 -1112 29 -231 49 -574 40
-682 -4 -46 -2 -78 4 -82 23 -15 15 415 -14 667 -22 201 -55 406 -130 821 -37
199 -67 368 -68 376 -1 9 7 16 21 18 31 5 28 30 -5 34 -27 3 -28 5 -45 113
-65 405 -87 692 -70 908 13 178 33 293 112 672 94 452 120 644 120 895 0 156
-10 363 -17 356 -3 -3 -4 -121 -4 -263 2 -360 -16 -507 -119 -998 -98 -458
-114 -579 -114 -825 1 -194 23 -433 68 -711 13 -79 23 -145 22 -145 0 -1 -49
-5 -107 -8 l-107 -7 1 78 c1 53 -4 95 -17 132 l-19 55 28 81 28 81 -26 58
c-33 72 -33 82 -1 140 32 58 34 123 5 186 -28 60 -27 70 14 147 41 78 46 139
15 193 -76 134 -88 181 -50 215 43 39 46 164 5 262 -49 116 -200 183 -413 183
-88 0 -108 3 -132 20 -16 11 -42 23 -59 26 -17 4 -31 9 -31 13 0 3 22 21 49
39 64 43 180 160 246 248 97 128 129 212 155 407 19 150 7 276 -36 376 -13 29
-24 57 -24 61 0 4 173 142 385 305 302 234 382 301 374 311 -9 11 -28 0 -93
-50 -44 -35 -218 -169 -385 -299 l-304 -235 -55 59 c-62 68 -176 129 -275 149
-97 19 -231 14 -324 -13 l-82 -24 -6 28 c-26 115 -176 184 -385 177 l-75 -3
-7 80 c-4 44 -12 100 -18 125 -19 85 -62 402 -110 823 -24 206 -30 300 -30
466 l0 207 453 425 c248 234 481 453 517 486 l65 61 64 -48 c209 -157 475
-283 1091 -515 201 -76 419 -162 485 -191 134 -60 125 -57 125 -45 0 17 -210
105 -625 261 -590 222 -866 353 -1069 508 l-59 46 36 30 c91 79 437 411 437
419 0 12 15 25 -265 -237 l-220 -207 -100 104 c-165 171 -235 333 -235 541 1
194 46 310 261 667 133 222 263 466 308 582 17 43 41 119 52 170 30 130 22
305 -20 467 -54 208 -83 272 -183 414 -63 87 -66 91 -73 84 -4 -3 25 -50 63
-104 85 -121 101 -153 140 -275 96 -301 97 -519 1 -757 -45 -113 -166 -340
-301 -566 -142 -237 -188 -327 -231 -449 -30 -87 -31 -99 -31 -237 0 -132 3
-152 28 -225 41 -121 109 -226 214 -334 l93 -96 -44 -40 c-24 -22 -252 -236
-506 -475 -255 -239 -467 -436 -472 -438 -5 -2 -9 27 -9 66 0 132 -42 506 -83
734 -11 58 -11 92 -4 135 15 84 -19 679 -44 788 -5 22 -14 186 -20 365 -11
360 -17 399 -74 473 -38 49 -34 54 27 37 44 -13 88 -61 88 -98 0 -15 -7 -82
-17 -150 -20 -145 -13 -189 30 -210 26 -12 34 -11 82 12 31 16 86 59 132 104
65 64 82 88 102 142 13 36 36 90 52 121 15 30 30 71 34 91 13 70 -41 127 -159
168 -106 36 -189 23 -282 -43 -69 -49 -152 -90 -167 -83 -44 22 -174 137 -188
166 -64 137 -88 179 -124 217 -39 40 -45 43 -97 43 -30 0 -92 11 -138 25 -63
19 -106 25 -176 25 -51 0 -115 5 -142 11 -100 21 -234 -51 -397 -216 -84 -84
-130 -142 -195 -242 -47 -73 -91 -132 -99 -132 -8 -1 -35 9 -59 20 -114 56
-86 137 153 453 231 304 220 283 236 471 15 180 27 249 53 307 37 85 107 171
175 216 34 22 57 43 52 46 -4 3 -29 -8 -54 -25z m295 -1228 c45 -17 84 -47
180 -137 68 -64 124 -119 125 -122 1 -4 -30 -22 -70 -40 l-72 -32 -437 0
c-419 0 -439 1 -470 20 l-33 20 37 0 c33 0 41 6 82 58 91 119 194 197 316 240
88 30 255 27 342 -7z m370 -320 c44 -15 53 -24 67 -77 6 -23 22 -57 36 -77 13
-20 21 -38 17 -41 -4 -2 -20 24 -36 57 -15 34 -33 73 -40 86 -10 23 -15 24
-95 23 -45 0 -85 -3 -88 -5 -2 -3 35 -29 84 -58 113 -68 158 -99 146 -99 -6 0
-40 20 -77 44 -37 25 -92 57 -122 73 -30 15 -54 30 -54 33 0 15 113 71 120 60
3 -4 22 -12 42 -19z m-422 -32 c-155 -19 -265 -59 -337 -121 -20 -18 -34 -28
-30 -22 11 19 -13 83 -35 95 -19 10 -25 8 -45 -15 -13 -15 -23 -33 -23 -41 0
-8 -9 -19 -19 -25 -11 -5 -31 -34 -45 -65 -18 -40 -31 -56 -50 -61 -54 -13
-69 37 -46 156 8 42 7 59 -4 82 l-15 28 357 -1 c234 -2 335 -5 292 -10z
m-1580 -170 c0 -108 0 -109 -24 -109 -22 0 -23 3 -30 102 -6 89 -5 104 9 115
37 26 45 7 45 -108z m-336 101 c14 -5 34 -23 45 -41 10 -17 21 -25 23 -19 2 8
33 12 88 12 104 1 120 -12 120 -103 0 -59 0 -59 -29 -59 -16 0 -36 -3 -45 -6
-16 -6 -66 36 -66 56 0 6 11 22 25 36 l25 25 -32 -3 c-32 -3 -33 -4 -36 -55
-3 -48 -5 -53 -26 -53 -28 0 -38 21 -30 58 4 23 3 23 -10 -6 -18 -38 -73 -66
-111 -56 -68 17 -99 121 -54 178 33 42 69 53 113 36z m835 1 c8 -5 12 -18 8
-30 -6 -24 8 -29 17 -6 3 8 15 15 26 15 11 0 23 -7 26 -15 4 -9 19 -15 38 -15
26 0 34 -5 45 -32 l13 -33 11 33 c7 24 16 32 33 32 12 0 25 -4 28 -8 8 -14
-62 -176 -85 -194 -44 -37 -79 -5 -40 36 21 22 21 23 4 69 -10 26 -23 47 -30
47 -18 0 -17 -57 2 -64 16 -6 21 -46 6 -46 -5 0 -16 -3 -24 -6 -26 -10 -57 32
-59 79 -1 39 -2 39 -7 -13 -6 -51 -8 -55 -33 -58 -28 -3 -28 -3 -29 55 l0 58
-22 -57 c-18 -51 -24 -58 -47 -58 -23 0 -29 7 -42 48 l-16 47 -1 -47 -1 -48
-42 -1 c-24 -1 -47 0 -53 1 -5 1 -21 1 -35 0 -66 -5 -82 -1 -105 20 -62 59 1
162 85 140 14 -4 38 -3 53 1 16 4 38 4 50 0 12 -5 36 -6 53 -4 29 5 33 2 44
-33 l13 -38 11 35 c8 23 18 35 34 37 13 2 22 10 22 21 0 16 18 41 30 41 3 0
11 -4 19 -9z m509 -337 c33 -22 52 -73 52 -143 0 -41 5 -65 16 -75 13 -14 13
-16 1 -16 -18 0 -27 30 -27 93 0 85 -34 136 -102 152 -26 7 -28 5 -28 -24 0
-17 9 -67 21 -111 11 -44 19 -88 16 -98 -2 -11 -6 -7 -11 13 -3 17 -13 58 -21
92 -16 66 -19 125 -8 137 11 10 62 -1 91 -20z m247 -226 c6 -4 2 -8 -7 -8 -10
0 -18 7 -18 17 0 9 3 12 8 7 4 -5 12 -12 17 -16z m-102 -50 c10 -18 15 -34 10
-36 -4 -1 -64 -29 -133 -61 -69 -32 -126 -57 -128 -56 -1 1 7 43 19 93 l22 92
96 0 96 0 18 -32z m137 27 c0 -4 -67 -35 -75 -35 -2 0 -1 9 2 20 4 15 14 20
39 20 19 0 34 -2 34 -5z m215 -5 c4 -6 -15 -11 -47 -12 -83 -3 -109 -1 -121
11 -8 8 13 11 75 11 48 0 90 -4 93 -10z m-1083 -3917 c-71 -178 -109 -395
-100 -584 l6 -107 -77 33 c-42 18 -126 55 -187 81 l-112 49 -5 46 c-8 68 9
487 29 712 l18 197 -33 41 c-31 38 -91 144 -91 162 0 4 132 -117 293 -269
l293 -277 -34 -84z m2131 -584 c-53 -98 -148 -139 -340 -148 l-132 -6 -36 -35
c-35 -33 -37 -34 -133 -37 l-97 -4 49 46 c85 80 117 93 348 141 117 24 247 55
288 68 41 13 76 24 78 25 2 1 -9 -22 -25 -50z m-2231 -128 c4 -4 15 -47 23
-96 9 -50 37 -157 63 -240 l47 -150 -3 -141 c-2 -132 -1 -143 21 -175 12 -18
34 -40 47 -47 38 -20 133 -9 233 27 105 37 107 37 74 11 -31 -25 -86 -132 -90
-177 -3 -24 -13 -39 -37 -55 -31 -22 -56 -59 -78 -118 l-9 -25 -16 35 -16 35
5 -57 c6 -55 5 -59 -30 -100 -38 -44 -56 -92 -54 -145 1 -20 -9 -48 -25 -73
-15 -22 -27 -49 -27 -60 0 -16 -14 -27 -55 -46 -31 -13 -57 -24 -59 -24 -1 0
-6 57 -9 128 -13 254 -44 376 -192 747 -57 143 -115 307 -129 365 -26 105 -56
367 -56 486 l0 62 183 -80 c100 -44 185 -83 189 -87z m1146 -496 c-14 -49 -22
-112 -25 -208 -6 -137 -6 -138 -23 -109 -32 51 -133 69 -201 34 -34 -17 -35
-17 -66 4 -18 12 -53 28 -78 35 l-45 13 98 51 c101 52 220 133 307 209 28 24
51 43 52 42 1 -1 -8 -33 -19 -71z m580 -35 l32 -24 -36 -18 c-49 -24 -74 -47
-74 -70 0 -14 -8 -18 -34 -18 -48 0 -87 -35 -95 -86 -6 -31 -9 -16 -14 70 -9
121 -8 123 56 156 54 27 120 23 165 -10z m-268 -171 c10 -72 0 -131 -31 -168
-11 -13 -22 -22 -24 -19 -9 8 13 203 26 231 7 15 14 25 16 23 2 -2 8 -32 13
-67z m70 -214 c0 -9 12 -39 26 -67 16 -32 21 -49 12 -46 -7 3 -43 16 -80 29
-38 13 -68 27 -68 30 0 8 59 54 80 62 25 9 30 8 30 -8z m1851 -227 c3 -102 4
-188 0 -188 -2 0 -16 11 -32 24 -57 49 -171 45 -282 -9 -30 -15 -91 -58 -135
-96 -63 -53 -79 -63 -72 -44 5 13 11 46 13 72 4 39 9 49 28 55 13 5 36 27 51
48 l28 40 74 -6 c67 -6 75 -5 84 13 8 15 18 19 41 15 46 -7 93 14 141 63 24
25 48 45 52 45 4 0 8 -15 9 -32z m-2511 -263 c16 -8 53 -19 82 -24 l53 -8 -40
-18 c-56 -25 -115 -30 -139 -12 -18 13 -18 18 -7 46 16 36 13 35 51 16z m156
-111 c21 -14 45 -29 55 -33 9 -3 43 -30 75 -60 32 -30 50 -51 39 -47 -126 51
-252 61 -329 28 -24 -11 -65 -39 -90 -62 l-46 -42 35 67 c26 49 35 79 35 115
0 41 3 47 18 44 9 -3 35 -1 57 5 72 16 110 13 151 -15z m-896 -111 c0 -9 -11
-36 -25 -60 -21 -36 -25 -54 -24 -110 2 -91 -28 -242 -53 -263 -10 -8 -27 -37
-38 -65 -23 -61 -23 -59 -5 86 8 64 17 175 21 248 l7 131 51 24 c62 30 66 30
66 9z m2627 -15 c-3 -8 -6 -5 -6 6 -1 11 2 17 5 13 3 -3 4 -12 1 -19z m-1017
-58 c0 -5 -4 -10 -10 -10 -5 0 -10 5 -10 10 0 6 5 10 10 10 6 0 10 -4 10 -10z
m654 -6 c5 -12 2 -15 -10 -10 -8 3 -23 6 -32 7 -14 0 -13 2 3 9 29 12 32 12
39 -6z m480 -117 c-49 -52 -62 -61 -77 -52 -15 9 -13 12 20 26 21 9 54 33 72
53 19 20 37 36 40 36 2 0 -22 -28 -55 -63z m514 51 c-3 -7 -15 -14 -29 -16
-24 -4 -24 -3 -4 12 24 19 38 20 33 4z m-183 -118 c-10 -11 -22 -20 -26 -20
-5 0 2 10 14 23 27 28 38 25 12 -3z m-1980 -80 c-3 -5 -10 -10 -16 -10 -5 0
-9 5 -9 10 0 6 7 10 16 10 8 0 12 -4 9 -10z m1100 -21 c37 -11 65 -22 63 -24
-4 -4 -129 33 -137 40 -8 8 5 6 74 -16z m-741 -68 c3 -5 -1 -12 -10 -15 -20
-8 -29 -1 -19 13 8 13 22 14 29 2z m1296 -82 c0 -5 -4 -9 -9 -9 -5 0 -18 -3
-28 -7 -15 -6 -16 -4 -6 9 7 8 10 17 7 21 -3 3 3 3 15 0 12 -3 21 -9 21 -14z
m-2872 -188 c20 -27 20 -28 0 -40 -34 -21 -60 -96 -61 -180 -2 -70 -13 -99
-38 -101 -3 0 7 84 22 188 16 103 29 203 29 222 1 34 2 34 14 -13 7 -27 22
-61 34 -76z m2112 17 c0 -12 -6 -9 -26 13 -19 22 -19 22 4 8 12 -8 22 -17 22
-21z m337 10 c-3 -8 -6 -5 -6 6 -1 11 2 17 5 13 3 -3 4 -12 1 -19z m-1807 -18
c0 -5 -5 -10 -11 -10 -5 0 -7 5 -4 10 3 6 8 10 11 10 2 0 4 -4 4 -10z m1249
-268 c-8 -3 -20 -9 -26 -15 -10 -7 -13 -3 -13 17 0 24 2 25 26 14 17 -8 21
-14 13 -16z m485 -27 c4 -10 -1 -15 -16 -15 -17 0 -18 2 -8 15 7 8 14 15 15
15 2 0 5 -7 9 -15z m-1253 -198 c-10 -9 -11 -8 -5 6 3 10 9 15 12 12 3 -3 0
-11 -7 -18z m299 -62 c-7 -9 -15 -13 -19 -10 -3 3 1 10 9 15 21 14 24 12 10
-5z m-311 -139 c13 -20 39 -50 59 -67 20 -17 28 -29 18 -25 -11 4 -49 12 -86
18 -62 11 -70 10 -103 -10 l-36 -21 -25 52 c-14 29 -39 76 -56 105 l-32 53 44
-8 c58 -11 148 -7 161 6 8 8 14 0 23 -28 6 -22 21 -56 33 -75z m651 100 c0 -2
3 -11 6 -19 4 -11 -5 -16 -36 -19 l-42 -4 28 23 c27 21 44 29 44 19z m1438
-205 c2 -112 -8 -135 -79 -172 -22 -11 -49 -34 -60 -52 -18 -28 -20 -43 -15
-116 4 -46 9 -94 12 -106 5 -21 1 -24 -38 -30 -113 -19 -219 -104 -255 -206
-22 -60 -22 -60 -203 -19 -73 17 -134 30 -136 30 -2 0 -4 18 -4 39 0 22 -5 52
-10 67 -6 15 -9 28 -7 30 2 3 23 -3 46 -11 63 -22 200 -39 245 -31 91 17 239
234 240 353 1 51 -2 57 -35 87 l-37 31 43 2 c50 2 98 24 120 56 57 80 66 99
54 113 -9 12 -5 14 22 15 19 1 45 5 59 9 14 4 27 8 30 9 3 0 6 -43 8 -98z
m-963 1 c-3 -3 -11 0 -18 7 -9 10 -8 11 6 5 10 -3 15 -9 12 -12z m-747 -47
c-8 -19 -8 -28 3 -41 13 -16 12 -17 -11 -10 -14 4 -49 10 -78 13 -42 4 -57 2
-72 -12 -13 -12 -20 -14 -20 -6 0 7 -10 26 -21 43 l-22 30 34 -18 c50 -26 127
-24 164 3 37 28 37 28 23 -2z m713 -132 c13 -16 12 -17 -3 -4 -17 13 -22 21
-14 21 2 0 10 -8 17 -17z m-275 -19 c18 -14 18 -14 -6 -3 -31 14 -36 19 -24
19 6 0 19 -7 30 -16z"/>
<path d="M4118 10523 c17 -2 47 -2 65 0 17 2 3 4 -33 4 -36 0 -50 -2 -32 -4z"/>
<path d="M3161 10488 c9 -16 9 -37 -1 -87 -16 -85 -11 -135 13 -139 26 -5 55
25 69 71 6 21 22 46 35 54 13 8 23 20 23 27 0 6 11 24 23 40 33 41 69 31 91
-24 l16 -40 46 35 c26 20 75 43 117 56 40 11 77 22 82 24 6 2 -111 4 -258 4
l-268 1 12 -22z"/>
<path d="M2160 10340 c0 -82 3 -100 15 -100 12 0 15 18 15 100 0 82 -3 100
-15 100 -12 0 -15 -18 -15 -100z"/>
<path d="M1795 10429 c-60 -34 -75 -120 -30 -165 20 -20 33 -25 67 -22 36 3
46 9 66 38 18 26 22 43 18 69 -10 61 -76 105 -121 80z m65 -39 c36 -36 23
-108 -22 -123 -52 -18 -84 88 -38 125 28 23 35 23 60 -2z"/>
<path d="M1794 10376 c-3 -8 -4 -31 -2 -52 3 -36 5 -39 33 -39 37 0 55 39 37
80 -13 28 -59 35 -68 11z"/>
<path d="M1940 10309 c0 -55 3 -69 15 -69 11 0 15 11 15 39 0 49 8 71 26 71 8
0 14 6 14 14 0 9 -12 14 -35 14 l-35 0 0 -69z"/>
<path d="M2027 10374 c-12 -13 4 -24 27 -18 14 3 27 -1 35 -10 12 -14 10 -16
-11 -16 -38 0 -60 -22 -56 -55 3 -29 5 -30 56 -32 l52 -1 0 53 c0 35 -5 59
-16 69 -15 16 -75 22 -87 10z m73 -78 c0 -18 -27 -39 -40 -31 -16 10 -12 33 8
38 29 8 32 7 32 -7z"/>
<path d="M2060 10279 c0 -5 5 -7 10 -4 6 3 10 8 10 11 0 2 -4 4 -10 4 -5 0
-10 -5 -10 -11z"/>
<path d="M2667 10434 c-14 -15 -6 -34 14 -34 14 0 19 5 17 17 -3 18 -20 27
-31 17z"/>
<path d="M2727 10390 c-19 -23 -22 -40 -7 -40 6 0 10 -19 10 -43 0 -24 5 -48
12 -55 18 -18 58 -15 58 4 0 10 -6 14 -14 11 -11 -4 -15 6 -18 39 -3 37 0 44
14 44 10 0 18 6 18 13 1 16 50 -102 50 -120 0 -7 -9 -18 -20 -25 -23 -14 -27
-38 -7 -38 23 0 54 43 82 115 15 39 29 73 32 78 2 4 -5 7 -16 7 -16 0 -24 -11
-34 -47 -15 -50 -18 -49 -36 10 -12 34 -15 37 -51 37 -31 0 -38 3 -34 15 9 22
-19 19 -39 -5z"/>
<path d="M2292 10357 c-46 -48 -14 -117 53 -117 26 0 35 4 35 16 0 12 -6 15
-21 11 -20 -6 -59 22 -59 43 0 21 39 49 59 43 15 -4 21 -1 21 11 0 26 -62 21
-88 -7z"/>
<path d="M2407 10374 c-15 -16 -6 -24 24 -22 41 4 49 -18 9 -25 -19 -4 -34
-16 -42 -31 -17 -38 3 -56 62 -55 l48 2 4 47 c1 27 1 47 -1 44 -2 -2 -9 6 -15
19 -8 15 -22 23 -47 25 -19 2 -38 0 -42 -4z m59 -99 c-3 -8 -12 -15 -21 -15
-21 0 -19 38 3 42 19 4 26 -6 18 -27z"/>
<path d="M2440 10279 c0 -5 5 -7 10 -4 6 3 10 8 10 11 0 2 -4 4 -10 4 -5 0
-10 -5 -10 -11z"/>
<path d="M2538 10310 c33 -87 51 -91 80 -17 11 28 23 60 27 70 5 13 2 17 -12
17 -14 0 -23 -12 -34 -47 l-15 -48 -18 48 c-13 31 -25 47 -36 47 -16 0 -15 -7
8 -70z"/>
<path d="M2660 10310 c0 -63 2 -70 20 -70 18 0 20 7 20 70 0 63 -2 70 -20 70
-18 0 -20 -7 -20 -70z"/>
<path d="M2358 10342 c-35 -3 -38 -6 -38 -33 0 -24 4 -29 24 -29 14 0 37 13
54 29 32 33 26 38 -40 33z"/>
<path d="M1642 10193 l3 -338 5 335 5 335 8 -582 c5 -320 6 -587 2 -593 -3 -5
1 -10 9 -10 14 0 16 62 16 590 l0 590 693 3 692 2 -717 3 -718 2 2 -337z"/>
<path d="M6990 9490 c0 -104 17 -140 22 -49 6 95 68 93 68 -2 0 -27 5 -49 10
-49 17 0 12 107 -6 124 -18 19 -45 21 -62 4 -9 -9 -12 -3 -12 30 0 23 -4 42
-10 42 -6 0 -10 -40 -10 -100z"/>
<path d="M6440 9485 l0 -95 50 0 c58 0 68 17 13 22 -35 3 -38 6 -41 36 -3 31
-2 32 32 32 19 0 38 5 41 10 4 6 -10 10 -34 10 -39 0 -41 2 -41 30 0 28 2 30
40 30 22 0 40 5 40 10 0 6 -22 10 -50 10 l-50 0 0 -95z"/>
<path d="M1700 9550 c0 -5 14 -10 30 -10 l30 0 0 -85 c0 -50 4 -85 10 -85 6 0
10 35 10 85 l0 85 30 0 c17 0 30 5 30 10 0 6 -30 10 -70 10 -40 0 -70 -4 -70
-10z"/>
<path d="M6582 9518 c-21 -21 -13 -47 19 -63 36 -19 33 -40 -4 -40 -15 1 -27
-3 -27 -7 0 -16 31 -21 56 -10 34 16 31 49 -6 70 -35 20 -34 36 3 40 15 2 25
8 22 13 -9 13 -49 11 -63 -3z"/>
<path d="M6695 9510 c-39 -43 -9 -120 46 -120 29 0 59 36 59 70 0 60 -67 92
-105 50z m77 -25 c22 -49 -25 -98 -60 -63 -7 7 -12 24 -12 38 0 51 52 69 72
25z"/>
<path d="M6830 9435 c0 -78 3 -95 15 -95 10 0 15 11 15 35 0 33 1 34 20 23 24
-15 48 -4 69 34 31 54 -19 115 -74 90 -15 -7 -25 -8 -25 -2 0 6 -4 10 -10 10
-6 0 -10 -38 -10 -95z m88 63 c17 -17 15 -63 -3 -78 -8 -6 -23 -9 -35 -5 -35
11 -23 95 15 95 6 0 16 -5 23 -12z"/>
<path d="M7145 9521 c-3 -5 9 -11 27 -13 41 -4 47 -24 9 -33 -16 -3 -35 -13
-41 -20 -27 -32 13 -80 49 -58 14 9 21 9 30 0 13 -13 13 -9 11 58 -1 28 -6 56
-12 63 -12 14 -64 16 -73 3z m63 -83 c-4 -30 -48 -39 -48 -10 0 10 3 22 7 25
3 4 15 7 25 7 14 0 19 -6 16 -22z"/>
<path d="M7285 9510 c-22 -24 -24 -72 -5 -95 9 -11 25 -15 47 -13 29 4 33 1
31 -16 -2 -16 -12 -22 -40 -24 -47 -4 -50 -22 -5 -22 57 0 68 16 74 108 4 58
3 82 -6 82 -6 0 -11 -5 -11 -12 0 -9 -3 -9 -12 0 -18 18 -53 14 -73 -8z m69
-16 c19 -50 -6 -94 -43 -74 -24 12 -29 58 -9 78 17 17 45 15 52 -4z"/>
<path d="M7423 9514 c-10 -26 10 -106 29 -118 13 -8 24 -7 40 3 16 10 23 10
26 2 10 -29 22 7 22 65 0 49 -3 64 -14 64 -11 0 -16 -15 -18 -51 -2 -37 -8
-55 -21 -63 -24 -15 -37 7 -37 67 0 46 -15 63 -27 31z"/>
<path d="M7582 9518 c-19 -19 -14 -35 19 -61 36 -28 31 -52 -8 -44 -15 3 -22
0 -20 -7 2 -6 14 -12 26 -14 50 -8 72 55 26 76 -33 15 -33 42 1 42 14 0 23 4
19 10 -9 14 -48 13 -63 -2z"/>
<path d="M1850 9488 c-27 -29 -25 -69 3 -96 29 -27 47 -28 81 -1 32 25 35 70
6 99 -26 26 -64 25 -90 -2z m75 -42 c0 -46 -23 -68 -49 -47 -16 14 -22 72 -9
85 4 4 19 6 33 4 22 -3 25 -8 25 -42z"/>
<path d="M1990 9440 c0 -40 4 -70 10 -70 6 0 10 18 10 41 0 49 15 79 39 79 23
0 31 -19 31 -76 0 -24 5 -44 10 -44 14 0 12 114 -2 128 -7 7 -21 12 -33 12
-12 0 -26 -5 -33 -12 -9 -9 -12 -9 -12 0 0 7 -4 12 -10 12 -6 0 -10 -30 -10
-70z"/>
<path d="M2155 9490 c-22 -24 -24 -72 -5 -95 9 -11 25 -15 47 -13 29 4 33 1
31 -16 -2 -16 -12 -22 -40 -24 -47 -4 -50 -22 -5 -22 57 0 68 16 74 108 4 58
3 82 -6 82 -6 0 -11 -5 -11 -12 0 -9 -3 -9 -12 0 -18 18 -53 14 -73 -8z m69
-16 c19 -50 -6 -94 -43 -74 -24 12 -29 58 -9 78 17 17 45 15 52 -4z"/>
<path d="M2293 9494 c-10 -26 10 -106 29 -118 13 -8 23 -7 39 2 18 12 23 12
30 1 13 -21 21 11 17 71 -4 72 -26 78 -30 9 -2 -37 -8 -55 -21 -63 -24 -15
-37 7 -37 67 0 46 -15 63 -27 31z"/>
<path d="M2456 9488 c-45 -64 21 -149 84 -108 16 11 9 13 -32 10 -18 -1 -30 5
-37 19 -16 30 -15 31 34 31 38 0 45 3 45 19 0 48 -67 68 -94 29z m72 -20 c3
-15 -4 -18 -32 -18 -38 0 -44 8 -24 28 17 17 52 11 56 -10z"/>
<path d="M3685 9052 c-219 -175 -438 -264 -1045 -422 -493 -128 -638 -177
-843 -282 -152 -78 -304 -200 -373 -299 -43 -63 -22 -55 36 13 107 128 220
211 407 300 163 78 347 138 744 242 488 128 649 181 832 272 94 47 220 130
277 182 62 57 38 53 -35 -6z"/>
<path d="M1070 7005 l0 -115 76 0 c56 0 75 3 72 13 -3 7 -27 13 -61 15 l-57 3
0 99 c0 82 -3 100 -15 100 -12 0 -15 -19 -15 -115z"/>
<path d="M1250 7105 c0 -8 7 -15 15 -15 8 0 15 7 15 15 0 8 -7 15 -15 15 -8 0
-15 -7 -15 -15z"/>
<path d="M1250 6976 c0 -71 3 -86 15 -86 13 0 15 14 13 82 -2 54 -7 83 -15 86
-10 3 -13 -18 -13 -82z"/>
<path d="M1310 7049 c0 -7 12 -45 27 -86 18 -48 33 -73 42 -71 14 3 77 155 68
165 -12 11 -26 -9 -43 -60 -25 -77 -26 -77 -49 -7 -19 57 -45 91 -45 59z"/>
<path d="M1495 7035 c-53 -52 -18 -145 54 -145 34 0 71 22 71 43 0 13 -27 7
-40 -8 -16 -19 -44 -19 -64 1 -32 32 -20 44 44 44 54 0 60 2 60 20 0 29 -44
70 -75 70 -14 0 -37 -11 -50 -25z m87 -19 c15 -21 8 -26 -37 -26 -49 0 -57 11
-24 34 22 15 48 11 61 -8z"/>
<path d="M1660 6974 c0 -97 20 -116 24 -23 3 64 10 79 36 79 10 0 22 5 25 10
10 16 -26 24 -46 11 -12 -7 -19 -7 -19 -1 0 5 -4 10 -10 10 -6 0 -10 -35 -10
-86z"/>
<path d="M7130 6650 c-27 -27 -25 -45 5 -67 70 -49 70 -50 55 -68 -9 -11 -24
-16 -47 -13 -20 3 -32 0 -30 -6 2 -6 19 -12 38 -14 75 -6 92 69 24 101 -28 13
-36 22 -33 40 2 18 9 22 36 21 34 -2 43 10 16 20 -27 10 -43 7 -64 -14z"/>
<path d="M7970 6575 c0 -76 3 -95 14 -95 11 0 16 15 18 53 3 48 5 52 28 52 23
0 25 -4 28 -52 2 -41 7 -53 19 -53 13 0 15 9 10 55 -7 70 -12 78 -53 73 -33
-4 -34 -3 -34 29 0 23 -5 33 -15 33 -12 0 -15 -17 -15 -95z"/>
<path d="M7260 6625 c0 -8 -8 -15 -17 -15 -17 -1 -17 -1 -1 -13 11 -9 18 -31
20 -63 3 -42 6 -49 26 -52 12 -2 22 1 22 7 0 6 -7 11 -15 11 -11 0 -15 12 -15
44 0 36 4 45 23 51 l22 8 -22 4 c-13 2 -23 11 -23 19 0 8 -4 14 -10 14 -5 0
-10 -7 -10 -15z"/>
<path d="M7346 6588 c-49 -69 35 -147 94 -88 41 41 13 110 -45 110 -24 0 -39
-7 -49 -22z m68 -1 c12 -9 17 -23 14 -47 -3 -30 -7 -35 -31 -38 -41 -5 -56 45
-24 86 12 15 19 15 41 -1z"/>
<path d="M7490 6543 c0 -35 4 -63 10 -63 6 0 10 20 10 44 0 48 20 79 45 70 11
-4 15 -22 15 -60 0 -41 4 -54 15 -54 11 0 15 12 15 49 0 57 19 81 44 56 10
-10 16 -33 16 -61 0 -24 5 -44 10 -44 14 0 12 104 -2 118 -15 15 -55 16 -63 2
-5 -8 -11 -8 -19 -1 -7 6 -31 9 -54 8 l-42 -1 0 -63z"/>
<path d="M7720 6600 c0 -6 10 -8 23 -5 31 8 60 -21 31 -31 -58 -18 -65 -24
-62 -52 3 -25 7 -27 51 -28 l47 -2 0 52 c0 29 -5 57 -12 64 -15 15 -78 16 -78
2z m70 -70 c0 -28 -34 -44 -51 -24 -11 14 -10 18 6 30 27 20 45 17 45 -6z"/>
<path d="M7856 6588 c-35 -49 -7 -108 50 -108 19 0 34 5 34 10 0 6 -13 10 -29
10 -31 0 -41 14 -41 56 0 25 33 46 58 37 6 -3 12 0 12 6 0 6 -15 11 -34 11
-25 0 -39 -7 -50 -22z"/>
<path d="M710 5685 c0 -57 4 -95 10 -95 6 0 10 38 10 95 0 57 -4 95 -10 95 -6
0 -10 -38 -10 -95z"/>
<path d="M770 5685 c0 -78 3 -95 15 -95 12 0 15 17 15 95 0 78 -3 95 -15 95
-12 0 -15 -17 -15 -95z"/>
<path d="M835 5687 l0 -93 44 -2 c55 -2 81 18 81 63 0 42 -29 69 -70 63 -28
-4 -30 -3 -30 29 0 20 -5 33 -12 33 -10 0 -13 -25 -13 -93z m100 -17 c10 -32
-12 -62 -43 -58 -23 3 -28 9 -30 38 -6 59 55 76 73 20z"/>
<path d="M990 5685 c0 -69 3 -95 13 -95 9 0 12 26 12 95 0 69 -3 95 -12 95
-10 0 -13 -26 -13 -95z"/>
<path d="M1280 5747 c0 -32 -2 -33 -30 -29 -41 6 -70 -21 -70 -64 0 -18 7 -40
16 -48 18 -19 55 -21 72 -4 9 9 12 9 12 0 0 -7 5 -12 10 -12 6 0 10 38 10 95
0 57 -4 95 -10 95 -5 0 -10 -15 -10 -33z m-3 -75 c12 -47 -37 -83 -64 -46 -18
25 -16 41 7 64 24 24 48 17 57 -18z"/>
<path d="M1430 5747 c0 -32 -2 -33 -30 -29 -17 2 -37 -1 -44 -8 -24 -19 -30
-68 -12 -95 14 -22 23 -25 66 -23 l50 2 0 93 c0 76 -3 93 -15 93 -10 0 -15
-10 -15 -33z m-2 -95 c-3 -34 -6 -37 -33 -37 -27 0 -30 4 -33 35 -4 42 20 65
50 49 15 -8 18 -19 16 -47z"/>
<path d="M415 5745 c-35 -34 -35 -96 0 -131 21 -21 33 -25 73 -22 l47 3 0 45
c0 42 -2 45 -27 48 -16 2 -28 -1 -28 -7 0 -6 7 -11 15 -11 10 0 15 -10 15 -30
0 -27 -3 -30 -30 -30 -38 0 -70 32 -70 70 0 43 31 70 80 70 22 0 40 5 40 10 0
6 -20 10 -45 10 -35 0 -52 -6 -70 -25z"/>
<path d="M580 5709 c0 -6 7 -9 15 -5 20 7 45 -3 45 -18 0 -7 -15 -16 -32 -21
-28 -8 -33 -15 -33 -40 0 -29 2 -30 48 -31 l47 -1 0 44 c0 63 -13 83 -55 83
-19 0 -35 -5 -35 -11z m70 -69 c0 -16 -31 -39 -45 -34 -22 9 -18 34 8 43 23 9
37 6 37 -9z"/>
<path d="M1060 5709 c0 -6 7 -9 15 -5 20 7 45 -3 45 -18 0 -7 -15 -16 -32 -21
-28 -8 -33 -15 -33 -40 0 -29 2 -30 48 -31 l47 -1 0 44 c0 63 -13 83 -55 83
-19 0 -35 -5 -35 -11z m70 -69 c0 -16 -31 -39 -45 -34 -22 9 -18 34 8 43 23 9
37 6 37 -9z"/>
<path d="M1507 5702 c-21 -23 -22 -76 -1 -96 17 -18 84 -22 84 -6 0 6 -13 10
-28 10 -27 0 -52 15 -52 32 0 4 20 8 45 8 40 0 45 2 45 23 0 13 -5 28 -12 35
-18 18 -63 14 -81 -6z m63 -7 c17 -21 9 -27 -31 -23 -31 3 -32 4 -15 21 21 21
30 21 46 2z"/>
<path d="M1630 5655 c0 -51 3 -65 15 -65 11 0 15 12 15 51 0 42 3 52 20 56 11
3 20 9 20 14 0 13 -24 11 -38 -3 -9 -9 -12 -9 -12 0 0 7 -4 12 -10 12 -6 0
-10 -28 -10 -65z"/>
<path d="M90 3015 l0 -115 70 0 c56 0 70 3 70 15 0 12 -13 15 -55 15 l-55 0 0
100 c0 82 -3 100 -15 100 -12 0 -15 -19 -15 -115z"/>
<path d="M1000 3015 c0 -96 3 -115 15 -115 12 0 15 19 15 115 0 96 -3 115 -15
115 -12 0 -15 -19 -15 -115z"/>
<path d="M1770 3115 c0 -8 7 -15 15 -15 8 0 15 7 15 15 0 8 -7 15 -15 15 -8 0
-15 -7 -15 -15z"/>
<path d="M1273 3113 c-7 -3 -13 -13 -13 -23 0 -10 -5 -22 -11 -26 -8 -4 -8 -9
0 -17 6 -6 11 -33 11 -60 0 -58 14 -87 40 -87 23 0 27 15 5 24 -11 4 -15 21
-15 61 0 42 3 55 15 55 8 0 15 7 15 15 0 8 -6 15 -14 15 -8 0 -16 11 -18 23
-2 14 -8 22 -15 20z"/>
<path d="M1697 3113 c-4 -3 -7 -15 -7 -25 0 -10 -4 -18 -10 -18 -5 0 -10 -7
-10 -15 0 -8 4 -15 10 -15 5 0 10 -30 12 -67 3 -66 4 -68 31 -71 29 -4 37 12
12 22 -23 8 -21 105 3 122 16 12 16 13 0 19 -10 4 -18 18 -18 31 0 23 -10 31
-23 17z"/>
<path d="M282 3054 c-12 -8 -22 -19 -22 -25 0 -14 22 -11 42 8 15 13 23 14 43
5 39 -18 31 -39 -19 -46 -57 -9 -84 -36 -68 -71 9 -20 19 -25 50 -25 21 0 43
5 49 11 8 8 13 8 17 0 4 -6 13 -11 19 -11 18 0 9 130 -10 153 -20 21 -71 22
-101 1z m88 -88 c0 -37 -71 -64 -83 -32 -7 16 8 32 38 39 36 9 45 7 45 -7z"/>
<path d="M440 2985 c0 -69 3 -85 15 -85 11 0 15 13 15 54 0 70 7 86 36 86 13
0 24 5 24 10 0 17 -29 23 -44 11 -10 -8 -16 -9 -21 -1 -17 27 -25 3 -25 -75z"/>
<path d="M561 3044 c-48 -61 -9 -154 59 -140 28 5 31 4 28 -17 -4 -28 -52 -36
-77 -13 -21 19 -34 10 -21 -15 19 -35 97 -32 122 5 12 17 10 206 -2 206 -5 0
-10 -5 -10 -10 0 -7 -6 -7 -19 0 -32 17 -58 12 -80 -16z m69 -4 c21 -11 34
-53 25 -81 -9 -28 -41 -42 -65 -29 -27 14 -29 94 -2 109 21 13 20 13 42 1z"/>
<path d="M746 3049 c-34 -27 -37 -98 -6 -129 28 -28 83 -27 112 2 22 22 22 23
4 26 -11 2 -23 -3 -28 -12 -19 -33 -78 -13 -78 27 0 16 7 18 58 16 52 -3 57
-1 60 19 4 28 -39 72 -71 72 -13 0 -36 -9 -51 -21z m72 -15 c34 -23 27 -34
-23 -34 -48 0 -55 9 -29 34 19 20 24 20 52 0z"/>
<path d="M1080 2985 c0 -69 3 -85 15 -85 12 0 15 13 15 58 0 61 5 75 32 85 31
11 48 -19 48 -84 0 -46 3 -59 15 -59 12 0 15 12 14 53 -1 28 -4 63 -8 77 -9
31 -54 49 -81 32 -12 -7 -21 -8 -25 -2 -17 27 -25 2 -25 -75z"/>
<path d="M1365 3045 c-32 -31 -34 -96 -5 -125 29 -29 94 -27 115 2 19 29 2 37
-26 12 -26 -23 -73 -9 -77 24 -3 21 0 22 57 22 55 0 61 2 61 20 0 29 -44 70
-75 70 -14 0 -37 -11 -50 -25z m93 -33 c2 -8 -12 -12 -42 -12 -50 0 -58 11
-24 34 19 13 25 14 42 3 11 -8 22 -19 24 -25z"/>
<path d="M1536 3054 c-19 -19 -21 -48 -3 -61 6 -6 29 -16 50 -23 27 -8 37 -17
35 -28 -4 -23 -56 -29 -64 -8 -7 19 -34 21 -34 3 0 -23 23 -37 61 -37 41 0 69
21 69 49 0 23 -15 35 -62 50 -21 7 -38 18 -38 26 0 21 31 27 56 10 29 -19 34
-19 34 0 0 33 -76 47 -104 19z"/>
<path d="M1777 3063 c-4 -3 -7 -42 -7 -85 0 -63 3 -78 15 -78 12 0 15 16 15
85 0 78 -5 96 -23 78z"/>
<path d="M1847 3063 c-2 -5 -5 -43 -6 -85 -2 -65 0 -78 13 -78 13 0 16 12 16
55 0 66 26 103 60 85 17 -9 20 -21 20 -75 0 -51 3 -65 15 -65 24 0 21 131 -3
153 -21 19 -45 21 -73 7 -13 -7 -19 -7 -19 0 0 12 -17 14 -23 3z"/>
<path d="M2048 3060 c-22 -13 -41 -74 -33 -102 13 -40 36 -58 75 -58 33 0 70
23 70 43 0 12 -21 7 -36 -8 -22 -21 -50 -19 -68 7 -22 31 -11 40 53 37 38 -2
56 1 55 9 -1 7 -2 19 -2 27 -5 42 -72 69 -114 45z m75 -32 l22 -23 -27 -3
c-16 -2 -40 -2 -55 0 l-28 3 23 23 c12 12 27 22 32 22 6 0 20 -10 33 -22z"/>
<path d="M7015 3053 c-46 -11 -68 -56 -46 -91 5 -8 32 -22 62 -31 60 -20 80
-41 60 -65 -26 -31 -111 -12 -111 25 0 5 -7 9 -15 9 -20 0 -19 -23 3 -50 27
-33 99 -39 135 -10 52 41 31 92 -48 115 -31 9 -58 22 -62 31 -15 40 66 62 89
24 15 -23 38 -27 38 -7 0 31 -61 60 -105 50z"/>
<path d="M7612 2938 c2 -78 7 -113 16 -116 9 -3 12 24 12 112 0 98 -2 116 -15
116 -13 0 -15 -17 -13 -112z"/>
<path d="M7682 2938 c2 -78 7 -113 16 -116 9 -3 12 24 12 112 0 98 -2 116 -15
116 -13 0 -15 -17 -13 -112z"/>
<path d="M7852 2938 c2 -78 7 -113 16 -116 9 -3 12 24 12 112 0 98 -2 116 -15
116 -13 0 -15 -17 -13 -112z"/>
<path d="M8540 3035 c0 -8 7 -15 15 -15 8 0 15 7 15 15 0 8 -7 15 -15 15 -8 0
-15 -7 -15 -15z"/>
<path d="M8120 3016 c0 -13 -6 -27 -12 -30 -10 -5 -10 -7 0 -12 8 -4 12 -29
12 -75 0 -73 10 -89 48 -74 15 6 15 8 -5 22 -19 13 -23 25 -23 65 0 34 4 50
15 54 8 4 15 10 15 15 0 5 -7 9 -15 9 -9 0 -15 9 -15 25 0 14 -4 25 -10 25 -5
0 -10 -11 -10 -24z"/>
<path d="M7170 2905 c0 -68 3 -85 15 -85 11 0 15 16 17 66 2 49 7 70 20 77 31
20 48 -8 48 -80 0 -87 23 -82 30 7 9 116 70 106 70 -12 0 -32 4 -58 10 -58 15
0 13 143 -2 158 -15 15 -61 15 -76 0 -9 -9 -15 -9 -24 0 -15 15 -61 15 -76 0
-9 -9 -12 -9 -12 0 0 7 -4 12 -10 12 -6 0 -10 -35 -10 -85z"/>
<path d="M7445 2968 c-19 -28 -2 -37 25 -13 25 22 65 16 65 -10 0 -15 -9 -21
-37 -26 -46 -7 -68 -25 -68 -53 0 -43 46 -60 93 -35 16 9 22 9 25 0 2 -6 9
-11 16 -11 14 0 9 138 -6 158 -6 6 -30 12 -54 12 -33 0 -46 -5 -59 -22z m79
-115 c-26 -19 -58 -12 -62 13 -3 18 4 23 35 31 34 8 38 7 41 -11 2 -11 -4 -26
-14 -33z"/>
<path d="M7932 2908 c2 -54 7 -83 16 -86 9 -3 12 13 12 56 0 42 5 65 16 76 38
39 64 10 64 -71 0 -49 3 -63 15 -63 22 0 21 132 -1 154 -18 19 -65 21 -82 4
-9 -9 -12 -9 -12 0 0 7 -7 12 -15 12 -13 0 -15 -14 -13 -82z"/>
<path d="M8211 2964 c-45 -57 -10 -144 59 -144 35 0 78 36 62 52 -7 7 -17 3
-31 -11 -25 -25 -30 -26 -59 -5 -41 29 -28 44 38 44 57 0 60 1 60 25 0 62 -90
89 -129 39z m87 -6 c25 -25 13 -38 -33 -38 -48 0 -55 9 -29 34 18 19 45 21 62
4z"/>
<path d="M8386 2974 c-32 -32 -9 -69 49 -80 37 -7 49 -36 19 -48 -25 -9 -32
-7 -53 15 -13 14 -21 17 -26 9 -12 -19 25 -50 60 -50 45 0 67 20 63 55 -2 25
-10 32 -48 45 -49 17 -60 43 -21 48 15 3 30 -3 38 -14 9 -13 16 -15 24 -7 17
17 -18 43 -56 43 -18 0 -41 -7 -49 -16z"/>
<path d="M8540 2904 c0 -64 3 -85 13 -82 8 3 13 32 15 86 2 68 0 82 -13 82
-12 0 -15 -15 -15 -86z"/>
<path d="M8610 2904 c0 -64 3 -85 13 -82 7 3 13 28 15 63 3 64 14 85 43 85 26
0 39 -31 39 -94 0 -31 5 -56 10 -56 15 0 13 143 -2 158 -16 16 -70 16 -86 0
-9 -9 -12 -9 -12 0 0 7 -4 12 -10 12 -6 0 -10 -35 -10 -86z"/>
<path d="M8800 2968 c-31 -33 -28 -100 6 -127 35 -28 75 -27 103 3 19 20 20
24 6 30 -9 3 -18 0 -21 -9 -9 -24 -43 -29 -65 -9 -35 32 -24 44 41 44 52 0 60
3 60 19 0 10 -9 30 -21 45 -27 34 -79 36 -109 4z m84 -14 c26 -25 19 -34 -29
-34 -46 0 -58 13 -33 38 17 17 44 15 62 -4z"/>
<path d="M1787 1293 c-4 -3 -7 -19 -7 -35 0 -25 -3 -28 -23 -23 -58 15 -94
-73 -49 -118 19 -19 26 -20 52 -10 16 6 30 7 30 2 0 -5 5 -9 10 -9 6 0 10 40
10 100 0 92 -5 112 -23 93z m-23 -79 c22 -9 22 -82 0 -91 -38 -14 -71 49 -43
83 13 16 20 17 43 8z"/>
<path d="M943 1195 c-23 -70 -28 -95 -18 -95 7 0 16 14 20 30 6 26 11 30 41
30 30 0 37 -4 45 -30 12 -33 29 -40 28 -12 -1 34 -56 167 -70 170 -10 2 -24
-26 -46 -93z m63 20 c11 -34 11 -35 -16 -35 -27 0 -27 1 -17 40 12 44 16 44
33 -5z"/>
<path d="M1847 1284 c-8 -8 1 -24 14 -24 5 0 9 7 9 15 0 15 -12 20 -23 9z"/>
<path d="M1097 1233 c-4 -3 -7 -46 -7 -95 0 -72 3 -88 15 -88 10 0 15 10 15
31 0 26 3 29 20 24 52 -17 93 39 70 95 -14 34 -52 49 -76 29 -12 -10 -17 -10
-23 -1 -4 7 -10 9 -14 5z m82 -27 c16 -20 10 -66 -10 -79 -27 -17 -49 -1 -49
36 0 50 33 74 59 43z"/>
<path d="M1250 1147 c0 -58 4 -97 10 -97 6 0 10 17 10 37 0 29 3 34 12 25 35
-35 88 2 88 61 0 47 -37 76 -74 59 -17 -7 -27 -7 -35 1 -8 8 -11 -14 -11 -86z
m90 52 c24 -44 -10 -96 -47 -73 -22 14 -28 46 -13 73 14 27 46 27 60 0z"/>
<path d="M1421 1222 c-31 -24 -31 -79 -1 -104 24 -20 65 -24 75 -8 4 6 -6 10
-22 10 -31 0 -53 16 -53 37 0 9 15 13 45 13 37 0 45 3 45 18 0 22 -30 52 -52
52 -9 0 -26 -8 -37 -18z m57 -14 c20 -20 14 -28 -23 -28 -19 0 -35 4 -35 8 0
12 22 32 35 32 6 0 16 -5 23 -12z"/>
<path d="M1540 1169 c0 -52 3 -70 13 -67 7 3 13 26 15 55 5 89 62 81 62 -8 0
-27 5 -49 10 -49 6 0 10 27 10 60 0 50 -3 61 -21 71 -16 8 -28 8 -45 0 -15 -6
-24 -7 -24 -1 0 6 -4 10 -10 10 -6 0 -10 -30 -10 -71z"/>
<path d="M1850 1170 c0 -40 4 -70 10 -70 6 0 10 30 10 70 0 40 -4 70 -10 70
-6 0 -10 -30 -10 -70z"/>
<path d="M1900 1234 c0 -3 9 -19 21 -35 l20 -29 -21 -31 c-12 -16 -19 -33 -15
-37 4 -4 16 6 27 21 l21 29 23 -29 c29 -37 42 -23 14 16 l-21 31 21 31 c28 39
15 53 -14 16 l-23 -28 -17 25 c-15 24 -36 35 -36 20z"/>
</g>
</svg>
