<svg id="Capa_1" enable-background="new 0 0 511.984 511.984" height="512" viewBox="0 0 511.984 511.984" width="512" xmlns="http://www.w3.org/2000/svg"><g><g><path d="m511.36 415.711-25.197-173.955c-5.425-37.454-24.172-71.722-52.786-96.489-28.614-24.768-65.215-38.408-103.06-38.408-14.768 0-28.626 5.503-39.325 14.705v-59.262c0-19.299-15.701-35-35-35s-35 15.701-35 35v59.239c-10.689-9.191-24.537-14.682-39.325-14.682-37.845 0-74.446 13.641-103.06 38.408-28.614 24.769-47.361 59.035-52.786 96.489l-25.197 173.955c-2.511 17.339 2.625 34.881 14.091 48.128 11.466 13.246 28.09 20.844 45.61 20.844h121.341c33.263 0 60.324-27.062 60.324-60.324v-147.559c4.95-4.142 9.626-8.656 14-13.522 4.374 4.866 9.051 9.379 14.001 13.522v16.939c0 5.522 4.477 10 10 10s10-4.478 10-10v-3.057c6.659 3.782 13.652 7.005 20.928 9.637 1.506 42.215 23.666 62.539 54.53 86.291 1.818 1.398 3.963 2.076 6.092 2.076 2.998 0 5.962-1.343 7.932-3.902 3.368-4.376 2.551-10.655-1.826-14.023-28.637-22.04-43.643-36.711-46.358-65.099.942.076 1.883.115 2.822.115 6.384 0 12.664-1.76 18.243-5.184 4.5-2.762 8.24-6.42 11.036-10.719 11.973 9.962 25.828 14.508 44.689 15.128.112.004.224.006.335.006 5.371 0 9.811-4.264 9.989-9.671.182-5.52-4.146-10.142-9.665-10.323-15.61-.515-27.821-3.733-39.876-17.872-1.505-14.346-11.859-26.873-26.667-30.418-28.129-6.733-48.661-30.514-51.204-59.244v-19.269c4.126-18.179 20.634-31.354 39.325-31.354 67.838 0 126.328 50.628 136.052 117.765l25.196 173.955c1.679 11.59-1.754 23.316-9.419 32.171s-18.777 13.934-30.489 13.934h-121.339c-22.235 0-40.324-18.09-40.324-40.324v-40.206c0-5.522-4.477-10-10-10s-10 4.478-10 10v40.206c0 33.263 27.061 60.324 60.324 60.324h121.341c17.52 0 34.145-7.598 45.61-20.844 11.467-13.246 16.603-30.788 14.092-48.127zm-289.368 8.647c0 22.234-18.089 40.324-40.324 40.324h-121.342c-11.711 0-22.824-5.078-30.489-13.934-7.665-8.854-11.098-20.581-9.419-32.171l25.196-173.955c9.725-67.137 68.215-117.765 136.053-117.765 18.725 0 35.194 13.16 39.325 31.352v19.272c-2.544 28.73-23.075 52.51-51.204 59.243-14.807 3.545-25.161 16.072-26.666 30.418-12.055 14.138-24.266 17.357-39.877 17.872-5.52.182-9.847 4.804-9.666 10.323.178 5.408 4.618 9.671 9.989 9.671.111 0 .223-.002.335-.006 18.859-.62 32.714-5.165 44.686-15.125 6.302 9.721 17.184 15.892 29.327 15.892.926 0 1.853-.038 2.778-.112-2.713 28.391-17.719 43.063-46.358 65.104-4.376 3.368-5.194 9.647-1.826 14.023 1.97 2.559 4.934 3.902 7.932 3.902 2.128 0 4.274-.678 6.092-2.076 30.863-23.752 53.024-44.076 54.529-86.291 7.276-2.632 14.269-5.855 20.928-9.637v133.676zm115.548-168.181c8.044 1.926 13.021 10.036 11.096 18.081-.932 3.896-3.326 7.195-6.741 9.291-3.415 2.097-7.441 2.739-11.337 1.804-24.67-5.905-46.286-19.288-62.51-38.696-1.399-1.675-2.76-3.396-4.046-5.115-1.888-2.524-4.856-4.012-8.009-4.012s-6.121 1.487-8.009 4.012c-1.282 1.715-2.644 3.437-4.044 5.113-16.226 19.41-37.842 32.793-62.51 38.698-1.16.277-2.342.418-3.514.418-6.955 0-12.945-4.734-14.568-11.514-1.925-8.044 3.053-16.154 11.097-18.08 36.682-8.781 63.412-39.904 66.514-77.444.023-.273.034-.549.034-.823v-115.608c0-8.271 6.729-15 15-15s15 6.729 15 15v115.606c0 .274.011.55.034.823 3.101 37.541 29.831 68.664 66.513 77.446z"/><path d="m270.762 342.952c1.612 3.865 5.531 6.356 9.719 6.157 4.129-.196 7.747-3.004 9.024-6.922 1.293-3.969-.127-8.447-3.427-10.989-3.353-2.583-8.117-2.732-11.636-.386-3.919 2.611-5.487 7.798-3.68 12.14z"/></g></g></svg>