<?xml version="1.0" encoding="utf-8"?>
<!-- Svg Vector Icons : http://www.onlinewebfonts.com/icon -->
<!DOCTYPE svg PUBLIC "-//W3C//DTD SVG 1.1//EN" "http://www.w3.org/Graphics/SVG/1.1/DTD/svg11.dtd">
<svg version="1.1" xmlns="http://www.w3.org/2000/svg" xmlns:xlink="http://www.w3.org/1999/xlink" x="0px" y="0px" viewBox="0 0 1000 1000" enable-background="new 0 0 1000 1000" xml:space="preserve">
<metadata> Svg Vector Icons : http://www.onlinewebfonts.com/icon </metadata>
<g><g transform="translate(0.000000,511.000000) scale(0.100000,-0.100000)"><path d="M4406,4991.8c-63.5-32.7-111.6-119.2-175-307.7l-50-153.9l-82.7,125c-103.9,161.6-228.9,277-315.4,292.3c-246.2,46.2-594.3-278.9-540.4-503.9c7.7-28.8,59.6-144.2,117.3-255.8c67.3-132.7,107.7-236.6,115.4-302c9.6-92.3,3.8-111.5-80.8-269.3c-109.6-203.9-121.2-217.3-150-176.9c-46.2,59.6-115.4,76.9-559.7,126.9c-427,48.1-452,50-500,19.2c-26.9-19.2-61.5-51.9-76.9-76.9c-61.5-92.3-153.9-561.6-196.2-984.7c-5.8-73.1-11.5-346.2-11.5-603.9l1.9-467.4l-105.8-176.9C1503.8,795.3,1292.3,206.8,1230.7-299c-36.5-288.5-15.4-778.9,44.2-1032.8c78.9-334.7,230.8-688.5,417.4-961.6l57.7-86.5v-944.3c0-1096.3-19.2-998.2,221.2-1113.6c284.6-136.5,584.7-134.6,861.6,7.7c211.6,107.7,213.5,115.4,221.2,513.5c3.9,184.7,7.7,334.7,11.5,334.7c1.9,0,90.4-48.1,194.3-105.8c105.8-57.7,201.9-105.8,215.4-105.8c17.3,0,25-98.1,28.9-363.5c5.8-357.7,5.8-365.4,53.8-415.4c100-107.7,342.3-198.1,567.4-215.4c190.4-11.5,359.7,25,548.1,119.3c165.4,82.7,192.3,128.9,192.3,319.3v136.6l82.7-11.5c153.9-23.1,523.1-50,671.2-50c121.2,0,176.9-11.5,319.2-65.4c438.5-167.3,861.6-261.6,1244.4-275c469.3-15.4,682.8,50,917.4,282.7c334.6,332.7,594.3,925.1,669.3,1525.1c34.6,267.3,15.4,773.2-38.5,1023.2c-61.6,290.4-165.4,584.7-309.6,873.2C8137.1-339.4,7762.1,137.5,7404.4,379.9c-105.8,71.2-117.3,84.6-105.8,132.7c15.4,75-53.8,280.8-148.1,428.9c-155.8,240.4-434.6,536.6-744.3,780.8l-48.1,36.6l73.1,25c51.9,17.3,121.2,19.2,230.8,9.6c296.2-26.9,350-21.2,440.4,40.4c94.2,67.3,159.6,157.7,188.5,263.5c25,96.2,11.6,150-59.6,232.7c-53.8,59.6-55.8,67.3-25,90.4c50,42.3,140.4,194.3,140.4,236.6c0,111.6-215.4,325-328.9,325c-36.6,0-84.6-26.9-151.9-88.5c-163.5-146.2-440.4-230.8-782.8-232.7c-117.3-1.9-219.2,3.8-227,11.5c-7.7,5.8-21.1,76.9-30.7,157.7c-38.5,311.6-157.7,611.6-361.6,915.5c-111.6,163.5-121.2,225-67.3,430.8c17.3,63.5,32.7,157.7,34.6,207.7c1.9,75-7.7,100-55.8,150c-86.6,92.3-223.1,153.9-336.6,153.9c-82.7,0-96.2,5.8-96.2,38.5c0,19.2-25,65.4-55.8,101.9C4767.6,4963,4513.7,5049.5,4406,4991.8z M4686.8,4914.9c111.5-51.9,217.3-173.1,217.3-248.1c0-50,5.8-57.7,34.6-46.2c67.3,28.8,113.5,30.8,190.4,11.5c105.8-28.9,232.7-125,248.1-188.5c9.6-32.7-3.8-140.4-30.8-269.3c-23.1-117.3-38.5-234.6-32.7-259.6c7.7-25,59.6-119.2,119.3-207.7c205.8-313.5,323.1-623.1,348.1-923.2l13.4-150l121.2-21.2c209.6-36.5,623.1,32.7,830.8,142.3c50,25,123.1,76.9,163.5,113.5c88.5,84.6,119.2,84.6,219.3,13.5c184.6-134.6,203.9-225,75-386.6l-82.7-107.7l65.4-75c59.6-69.2,65.4-86.5,57.7-167.3c-9.6-115.4-82.7-225-188.5-284.6c-73.1-40.4-92.3-42.3-217.3-26.9c-244.2,26.9-376.9,19.2-471.2-28.8c-69.2-36.5-78.8-48.1-57.7-67.3c15.4-13.5,96.2-80.8,180.8-150c300-248.1,563.5-550,688.5-794.3c44.2-86.6,59.6-146.2,63.5-240.4l5.8-123.1l121.2-86.6c275-192.3,475-407.7,725.1-782.8c384.6-575,584.6-1117.4,640.4-1732.9c71.2-790.5-205.8-1667.5-677-2138.7c-194.2-194.2-394.3-259.6-788.5-259.6c-392.4,0-821.2,90.4-1319.3,277c-196.2,73.1-215.4,76.9-428.9,76.9c-203.9,0-473.1,21.2-630.8,50l-63.5,11.5v-150c0-84.6-11.5-173.1-25-200c-48.1-96.2-263.5-198.1-486.6-228.9c-230.8-32.7-569.3,50-700.1,171.2l-57.7,53.8v363.5v361.6l-196.2,100c-109.6,55.8-234.6,123.1-278.9,150l-82.7,50v-386.6c0-380.8,0-386.6-46.2-432.7c-121.2-121.2-353.9-190.4-605.8-178.9c-159.6,5.8-203.9,15.4-325,73.1c-76.9,34.6-161.6,90.4-188.5,121.2l-46.2,55.8v938.5v940.5l-84.6,130.8c-577,894.3-598.1,1994.4-59.6,3113.7c65.4,140.4,161.6,317.3,213.5,394.3L1950,1428l-5.8,413.5c-7.7,607.7,46.2,1129,155.8,1507.8c67.3,236.6,55.8,232.7,602,167.3c244.3-26.9,453.9-57.7,467.3-67.3c15.4-9.6,40.4-50,59.6-92.3l30.8-75l125,217.3c121.2,211.6,125,221.2,125,353.9c0,126.9-7.7,150-109.6,359.6c-144.2,290.4-144.2,357.7-3.8,513.5c94.2,103.9,230.8,173.1,344.3,173.1c115.4,0,194.3-73.1,344.3-315.4l115.4-184.6l50,176.9c63.5,217.3,88.5,282.7,130.8,330.8C4450.3,4982.2,4538.7,4984.1,4686.8,4914.9z"/><path d="M4442.6,4713c-23.1-61.5-63.5-205.8-90.4-323.1c-61.5-273.1-71.2-298.1-125-298.1c-36.5,0-63.5,36.5-153.9,217.3c-138.5,273.1-251.9,432.7-317.3,448.1c-96.2,25-296.2-117.3-325-230.8c-7.7-30.8,21.2-109.6,94.2-253.9c121.2-238.5,161.6-396.2,132.7-521.2c-9.6-46.2-80.8-192.3-153.9-327c-75-136.5-167.3-311.6-203.9-390.4c-282.7-615.4-300-1254-48.1-1936.7l44.2-121.2h117.3c76.9,0,169.2,17.3,261.6,50c163.5,55.8,261.6,51.9,346.2-11.5l55.8-40.4l65.4,101.9c78.9,126.9,209.6,384.6,240.4,480.8c21.2,67.3,19.2,82.7-34.6,192.3c-82.7,171.2-117.3,323.1-117.3,527c0,194.3,30.8,321.2,103.9,432.7c98.1,146.2,242.3,167.3,357.7,51.9l61.5-59.6l396.2-3.8c219.3-1.9,423.1-9.6,452-19.2l55.8-15.4l-13.5,113.5c-38.5,305.8-142.3,569.3-352,890.5c-107.7,163.5-119.3,188.5-119.3,280.8c0,57.7,19.2,182.7,40.4,280.8l40.4,176.9l-42.3,32.7c-69.2,51.9-175,80.8-205.8,53.8c-13.5-11.5-51.9-75-84.6-142.3c-46.2-100-67.3-123.1-101.9-123.1c-63.5,0-69.2,28.8-55.8,250c13.5,217.3,3.8,240.4-132.7,309.6C4513.7,4845.7,4488.7,4836.1,4442.6,4713z"/><path d="M2252,3374.4c-34.6-90.4-98.1-419.3-125-650.1c-42.3-352-55.8-696.2-40.4-984.7l13.5-255.8l196.2-63.5c203.9-67.3,492.4-200,702-321.2c101.9-59.6,121.2-65.4,109.6-34.6c-30.8,80.8-107.7,357.7-134.6,496.2c-67.3,325-57.7,711.6,26.9,1050.1c28.8,117.3,86.5,625.1,78.9,702c0,9.6-159.6,38.5-352,61.6C2271.2,3428.2,2273.1,3428.2,2252,3374.4z"/><path d="M6933.2,2705.1c-161.6-125-459.7-215.4-784.7-240.4c-132.7-9.6-207.7-1.9-475,50c-338.5,67.3-369.3,69.2-1061.6,26.9l-207.7-13.5l-19.2-69.2c-34.6-126.9-25-180.8,48.1-252c36.5-34.6,82.7-103.9,100-151.9c44.2-115.4,44.2-338.5-1.9-492.4c-78.9-261.6-286.6-621.2-557.7-961.6c-221.2-276.9-778.9-1019.3-948.2-1259.7c-232.7-332.7-402-615.4-546.2-913.5c-175-361.6-230.8-552-242.3-840.5c-9.6-223.1-9.6-226.9,42.3-294.3c67.3-88.5,400-375,596.2-511.6c588.5-413.5,1311.7-698.2,2042.5-805.9c305.8-44.2,775-73.1,775-46.2c0,9.6-19.2,138.5-42.3,286.6c-34.6,221.2-42.3,353.9-42.3,740.5c0,538.5,13.5,655.8,161.5,1452.1C5898.5-901,5927.3-668.3,5929.2-301V10.6l-67.3,59.6c-36.5,32.7-92.3,113.5-123.1,178.9C5685,366.4,5683.1,377.9,5685,678c0,278.9,5.8,323.1,53.8,480.8c115.4,375,323.1,661.6,563.5,775.1c96.2,44.2,136.5,51.9,284.6,51.9c96.2-1.9,217.3-7.7,269.3-17.3c88.5-15.4,101.9-11.5,157.7,34.6c32.7,26.9,69.2,76.9,84.6,111.6c25,59.6,23.1,61.5-75,150c-55.8,50-100,100-100,111.5c0,11.5,46.2,69.2,101.9,130.8c128.9,138.5,132.7,148.1,98.1,196.2C7067.8,2783.9,7037.1,2783.9,6933.2,2705.1z"/><path d="M6096.6,1578.1c-82.7-100-184.6-317.3-234.6-498.1c-32.7-119.2-42.3-207.7-42.3-411.6c-1.9-242.3,1.9-267.3,50-369.3c59.6-126.9,125-178.9,207.7-161.5c32.7,5.8,175,67.3,315.4,134.6c221.2,107.7,288.5,130.8,475,163.5c119.2,21.2,223.1,50,232.7,63.5c67.3,100-130.8,430.8-444.3,746.2c-161.5,163.5-450,403.9-482.7,403.9C6163.9,1649.2,6129.3,1616.5,6096.6,1578.1z"/><path d="M1988.5,1233.8c-38.5-59.6-115.4-198.1-171.2-307.7c-432.7-842.4-536.6-1721.3-294.3-2459.8c78.8-238.5,240.4-544.3,405.8-765.4l138.5-186.6l25,169.2c65.4,461.6,267.3,911.6,705.8,1571.3c153.9,232.7,319.3,457.7,896.2,1221.3c117.3,157.7,234.6,334.6,253.9,390.4c9.6,25,0,38.5-34.6,51.9c-36.5,13.5-84.6,5.8-198.1-30.8c-115.4-38.5-186.6-50-321.2-51.9c-203.9,0-261.6,19.2-519.3,167.3c-101.9,59.6-248.1,134.6-323.1,167.3c-134.6,59.6-448.1,171.2-478.9,171.2C2063.5,1341.5,2027,1293.4,1988.5,1233.8z"/><path d="M6896.6,302.9c-151.9-28.8-242.3-61.6-452-161.5C6300.4,72.1,6160,10.6,6131.2,2.9l-53.8-11.5v-225c0-394.3-38.5-703.9-178.9-1444.4c-144.2-748.1-182.7-1179-150-1654c23.1-311.6,84.6-744.3,111.6-771.2c25-25,269.3-111.6,507.7-180.8c578.9-169.2,1052-198.1,1355.9-84.6c263.5,100,565.4,515.5,728.9,1003.9c255.8,769.3,190.4,1594.4-186.6,2348.3c-265.4,530.8-596.2,965.5-917.4,1202c-113.5,82.7-240.4,159.6-255.8,153.9C7089,337.5,7002.4,320.2,6896.6,302.9z"/><path d="M1923.1-3368.6v-828.9l63.5-38.5c32.7-21.2,121.2-57.7,194.3-80.8c186.6-57.7,375-42.3,548.1,46.2l126.9,63.5l5.8,403.9l3.8,405.8l-167.3,121.2c-94.2,69.2-305.8,261.6-471.2,428.9l-303.9,305.8V-3368.6z"/><path d="M3692.5-4153.3V-4461l111.5-50c277-123.1,515.4-123.1,765.5,0l103.9,50v165.4v165.4l-207.7,44.2c-113.5,25-317.3,84.6-455.8,130.8c-136.6,48.1-265.4,90.4-282.7,98.1C3694.4-3847.5,3692.5-3870.5,3692.5-4153.3z"/></g></g>
</svg>